<?xml version="1.0" standalone="no"?>
<!DOCTYPE svg PUBLIC "-//W3C//DTD SVG 20010904//EN"
 "http://www.w3.org/TR/2001/REC-SVG-20010904/DTD/svg10.dtd">
<svg version="1.0" xmlns="http://www.w3.org/2000/svg"
 width="1060.000000pt" height="1080.000000pt" viewBox="0 0 1060.000000 1080.000000"
 preserveAspectRatio="xMidYMid meet">

<g transform="translate(0.000000,1080.000000) scale(0.100000,-0.100000)"
fill="#000000" stroke="none">
<path d="M4781 10174 c-11 -8 -21 -21 -21 -28 0 -7 50 -64 110 -127 100 -104
126 -139 101 -139 -5 0 -53 20 -107 43 -126 55 -274 102 -389 122 -267 48
-339 54 -369 32 -34 -25 -14 -50 96 -117 59 -36 113 -71 120 -77 10 -10 -14
-13 -118 -15 -71 -1 -140 -1 -154 -1 -56 3 -403 -49 -585 -86 -121 -26 -332
-88 -362 -107 -26 -16 -30 -46 -10 -63 8 -6 47 -15 88 -21 41 -5 120 -20 177
-31 83 -18 101 -24 90 -34 -7 -7 -107 -45 -223 -85 -207 -71 -363 -141 -480
-215 -94 -60 -182 -133 -206 -171 -21 -34 -21 -36 -3 -55 13 -15 26 -19 44
-15 106 25 264 48 361 53 159 8 165 -7 31 -87 -396 -236 -578 -395 -774 -673
-32 -44 -58 -86 -58 -92 0 -22 38 -47 60 -40 11 4 67 34 123 67 145 87 247
127 247 97 0 -6 -33 -57 -73 -114 -83 -116 -133 -220 -123 -258 10 -43 40 -39
121 14 42 27 78 49 80 49 16 0 -3 -34 -52 -95 -128 -157 -216 -293 -299 -461
-46 -94 -84 -177 -84 -185 0 -21 20 -39 43 -39 10 0 58 36 107 79 88 80 130
109 130 93 0 -12 -52 -110 -96 -182 -46 -75 -165 -335 -202 -442 -17 -49 -49
-162 -72 -252 -39 -157 -40 -166 -25 -195 8 -17 21 -31 28 -31 15 0 100 106
145 180 56 92 306 390 328 390 19 0 28 -79 21 -184 -6 -91 -54 -296 -96 -410
-30 -79 -25 -135 11 -155 27 -15 41 -14 131 16 10 3 17 0 17 -8 -1 -25 -85
-178 -133 -244 -77 -104 -92 -154 -59 -196 15 -18 28 -22 66 -22 59 1 217 56
269 94 36 26 77 38 77 23 0 -19 -127 -325 -148 -357 -27 -41 -33 -43 -144 -52
l-76 -6 -31 38 c-17 21 -47 61 -68 88 -97 130 -415 551 -482 639 -42 54 -96
126 -121 160 -25 34 -68 91 -96 126 -48 62 -301 396 -409 540 -27 37 -71 95
-97 129 -27 35 -45 67 -42 72 3 5 223 9 511 9 l505 0 -26 34 c-14 19 -26 39
-26 45 0 6 -10 13 -22 16 -13 3 -275 4 -583 3 -636 -3 -599 3 -523 -87 24 -27
57 -68 73 -91 59 -79 94 -125 124 -161 17 -20 31 -41 31 -46 0 -5 14 -22 30
-38 17 -16 30 -34 30 -40 0 -6 13 -24 30 -40 16 -16 30 -34 30 -40 0 -6 18
-29 40 -50 22 -21 40 -44 40 -50 0 -7 9 -20 20 -30 11 -10 20 -23 20 -30 0 -6
18 -29 40 -50 22 -21 40 -44 40 -50 0 -5 14 -24 30 -42 17 -18 30 -36 30 -40
0 -4 14 -22 30 -40 17 -18 30 -36 30 -40 0 -4 17 -26 37 -49 21 -22 43 -47 48
-56 40 -61 66 -96 84 -117 11 -13 21 -27 21 -30 0 -3 15 -22 33 -41 19 -19 40
-46 47 -59 7 -14 17 -30 22 -35 36 -44 142 -182 179 -233 43 -60 158 -213 182
-243 48 -59 60 -82 46 -91 -8 -5 -25 -9 -39 -9 -38 0 -259 -48 -375 -82 -95
-27 -315 -97 -340 -108 -103 -45 -339 -168 -375 -195 -25 -18 -48 -34 -52 -34
-35 -3 -348 -297 -348 -326 0 -7 -7 -18 -15 -25 -18 -15 -94 -170 -107 -219
-46 -175 -25 -374 53 -489 16 -24 29 -46 29 -50 0 -12 134 -142 146 -142 6 0
23 -13 39 -30 16 -16 33 -30 39 -30 5 0 17 -7 25 -15 22 -19 311 -165 327
-165 8 0 29 -9 48 -20 20 -10 66 -30 103 -42 83 -28 108 -42 100 -55 -16 -25
-417 -35 -712 -18 l-141 8 -52 -51 c-58 -56 -67 -81 -58 -155 3 -29 10 -95 16
-147 5 -52 14 -138 20 -190 5 -52 15 -140 20 -195 24 -239 24 -242 56 -287 49
-70 51 -70 301 -64 156 5 224 3 228 -5 7 -11 83 -9 375 11 226 16 472 53 660
100 25 6 61 14 80 16 19 3 44 9 55 13 45 18 93 31 116 31 13 0 49 9 79 20 30
11 64 20 75 20 12 0 25 4 30 9 6 5 39 19 75 31 64 21 107 39 164 66 16 8 35
14 41 14 15 0 155 71 194 99 16 12 33 21 39 21 5 0 15 7 22 15 7 9 28 22 46
31 18 9 54 34 79 56 l46 41 27 -26 c32 -30 117 -61 140 -51 10 4 37 11 62 15
25 4 68 13 95 19 28 6 69 13 93 16 23 4 45 11 48 15 6 10 77 12 87 3 3 -3 1
-14 -5 -24 -18 -29 -2 -53 30 -46 15 4 47 11 72 16 25 5 65 13 90 19 120 25
114 26 141 -9 13 -18 36 -46 50 -64 14 -17 28 -36 30 -42 2 -6 18 -28 34 -48
17 -21 41 -52 55 -69 14 -18 33 -44 42 -58 9 -14 43 -59 76 -100 32 -41 74
-95 93 -121 19 -26 76 -103 127 -170 52 -68 103 -136 115 -152 36 -49 72 -91
80 -94 4 -2 7 -9 7 -16 0 -7 8 -21 18 -32 9 -11 33 -40 52 -64 19 -25 40 -52
47 -60 7 -8 30 -40 51 -70 49 -72 66 -71 126 2 25 31 46 61 46 67 0 6 4 11 8
11 4 0 15 13 25 29 9 15 32 46 52 67 19 21 35 43 35 47 0 4 13 22 30 40 16 18
30 36 30 40 0 4 13 22 30 40 16 18 30 37 30 42 1 6 19 28 40 50 22 22 40 45
40 51 0 6 9 19 20 29 11 10 20 23 20 30 0 6 18 29 40 50 22 21 40 44 40 50 0
6 14 24 30 40 17 16 30 33 30 38 0 5 15 27 33 48 17 21 46 56 62 79 17 22 44
58 60 80 17 22 44 58 60 81 17 22 46 59 65 82 20 23 49 62 65 87 16 25 45 64
65 87 19 23 48 59 63 80 16 21 51 67 78 103 27 36 60 81 73 100 13 19 31 42
41 50 9 8 21 24 26 37 6 15 17 23 33 23 14 0 28 5 31 10 3 5 21 10 40 10 19 0
37 5 40 10 3 6 26 10 50 10 24 0 47 5 50 10 3 6 26 10 50 10 24 0 47 5 50 10
3 6 26 10 50 10 24 0 46 4 49 9 3 5 23 11 43 15 83 12 160 26 208 35 28 6 65
13 83 17 38 7 43 22 39 109 -2 59 -1 60 23 57 14 -2 31 -9 38 -14 9 -8 49 -8
125 -2 62 4 156 7 210 6 356 -8 456 -2 817 46 107 15 230 39 415 84 22 5 58
13 80 17 43 8 147 38 180 51 11 5 34 11 50 15 17 4 44 13 60 20 17 8 50 20 75
29 131 44 337 143 419 200 28 20 55 36 59 36 5 0 17 9 27 20 10 11 22 20 27
20 14 0 198 182 198 195 0 7 9 20 20 30 11 10 20 22 20 26 0 5 10 24 23 42 13
19 36 72 51 118 25 74 29 100 30 221 1 98 -3 141 -12 150 -6 6 -12 19 -12 28
0 32 -33 82 -88 137 -58 57 -133 113 -151 113 -6 0 -19 20 -30 43 -11 24 -27
50 -36 57 -8 7 -15 18 -15 25 0 7 -22 32 -50 56 -132 117 -207 160 -433 249
-61 24 -106 47 -104 54 16 49 282 92 642 104 l220 7 3 54 c2 30 -2 59 -7 64
-6 6 -11 48 -11 93 0 46 -4 86 -10 89 -5 3 -10 39 -10 80 0 41 -4 77 -10 80
-5 3 -10 40 -10 82 0 42 -6 92 -12 111 l-13 34 -93 -4 -94 -3 -14 40 c-7 22
-14 65 -14 96 0 93 -39 158 -114 194 -27 13 -55 15 -137 11 -134 -7 -337 -22
-416 -31 -35 -4 -63 -5 -63 -2 0 11 58 92 79 111 12 11 21 23 21 27 0 5 21 36
48 70 26 33 68 88 94 122 26 34 65 86 88 114 23 29 40 59 37 67 -4 10 -27 15
-74 18 -37 2 -643 5 -1346 6 -936 1 -1282 4 -1292 12 -15 13 -55 5 -55 -11 0
-5 -38 -9 -85 -9 -97 0 -104 -6 -80 -63 l15 -37 1355 0 c767 0 1356 -4 1359
-9 3 -5 -16 -37 -42 -72 -195 -260 -268 -352 -286 -364 -17 -11 -90 -26 -191
-38 -15 -1 -21 5 -23 25 -3 22 4 33 35 55 38 27 165 188 171 216 5 24 -258 30
-1326 26 -812 -3 -984 -6 -991 -18 -5 -7 -2 -32 7 -60 52 -162 97 -317 112
-386 10 -44 29 -129 43 -190 14 -60 29 -127 32 -148 3 -21 12 -40 20 -43 7 -3
66 6 132 19 124 27 137 25 128 -18 -15 -62 -65 -526 -74 -680 -12 -194 -26
-416 -41 -640 -5 -77 -14 -216 -20 -310 -6 -93 -15 -231 -20 -306 -6 -74 -10
-259 -10 -411 0 -152 -4 -279 -8 -282 -5 -3 -73 -19 -153 -36 -79 -17 -184
-40 -234 -50 -49 -11 -247 -51 -440 -90 -192 -39 -397 -80 -453 -92 -79 -16
-106 -18 -111 -9 -4 6 -4 37 0 69 41 301 81 827 66 865 -5 12 -23 11 -129 -9
-68 -13 -161 -32 -208 -43 -47 -11 -157 -37 -245 -57 -88 -19 -165 -41 -172
-47 -16 -17 -32 -262 -40 -625 -5 -223 -10 -307 -19 -316 -7 -7 -48 -19 -91
-26 -78 -12 -366 -71 -643 -130 -198 -42 -236 -50 -300 -60 -30 -5 -120 -22
-199 -39 -79 -17 -148 -31 -154 -31 -11 0 -7 64 17 240 8 63 20 171 26 240 26
304 30 352 39 480 22 287 31 420 37 555 3 77 7 142 9 145 1 3 6 118 10 255 4
138 8 252 10 255 2 3 5 113 6 244 2 145 7 243 14 251 9 13 193 56 315 75 30 4
100 18 155 30 55 11 165 35 245 52 80 16 186 39 235 49 50 11 115 24 145 28
30 5 102 19 160 31 58 12 114 23 125 24 23 1 23 0 6 -124 -16 -111 -27 -227
-46 -489 -18 -236 -17 -238 41 -217 39 13 237 228 346 375 18 24 42 50 54 58
24 15 36 8 144 -84 61 -53 98 -65 118 -40 5 6 33 86 62 177 29 91 59 171 66
179 10 11 24 7 85 -28 40 -23 86 -45 101 -48 30 -6 58 10 58 34 0 58 -171 318
-314 478 -81 91 -230 323 -248 390 -4 11 -25 64 -47 118 -65 156 -85 244 -85
377 0 97 3 122 21 163 15 31 28 47 40 47 21 0 168 -90 253 -155 30 -23 82 -61
114 -84 93 -65 299 -236 434 -360 119 -110 153 -149 252 -288 208 -291 256
-352 288 -364 89 -34 102 185 30 501 -17 74 -39 164 -49 200 -82 283 -105 361
-144 480 -75 232 -172 511 -210 605 -71 171 -83 200 -110 260 -15 33 -50 107
-78 165 l-52 105 3 170 c3 254 -22 462 -88 725 -57 226 -164 430 -224 430 -34
0 -46 -19 -46 -72 0 -26 -4 -48 -10 -48 -5 0 -22 19 -36 42 -44 69 -169 211
-241 274 -153 134 -215 178 -453 320 -280 168 -280 168 -309 148z m109 -925
c100 -49 119 -64 173 -144 22 -33 61 -87 87 -120 25 -33 66 -89 92 -125 56
-78 113 -135 151 -149 16 -6 52 -11 82 -11 59 0 73 -10 47 -32 -56 -50 -145
-67 -224 -44 -65 19 -120 72 -171 166 -75 140 -84 156 -97 190 -50 126 -186
224 -329 238 -36 4 -66 12 -65 17 1 18 87 55 128 55 27 0 69 -14 126 -41z
m-135 -373 c55 -8 127 -24 159 -36 61 -20 126 -63 126 -81 0 -6 13 -24 29 -40
49 -48 51 -129 4 -171 -25 -23 -87 -48 -118 -48 -42 0 -127 40 -168 79 -21 20
-50 59 -64 86 -14 28 -50 87 -79 133 -30 45 -54 88 -54 93 0 7 13 9 33 6 17
-3 77 -12 132 -21z m1192 -508 c23 -35 57 -92 75 -128 19 -36 57 -103 83 -150
27 -46 57 -107 67 -135 11 -27 30 -72 43 -100 53 -114 95 -213 95 -226 0 -8 9
-29 20 -47 11 -18 20 -39 20 -47 0 -8 12 -40 26 -72 39 -87 49 -110 84 -203
17 -47 35 -94 40 -105 4 -11 13 -38 19 -60 13 -41 18 -54 44 -115 16 -36 35
-93 55 -165 7 -22 25 -82 42 -134 16 -51 30 -103 30 -114 0 -11 4 -34 10 -51
9 -30 25 -94 55 -216 7 -30 16 -89 20 -130 3 -41 9 -85 12 -97 9 -40 -21 -26
-55 26 -17 28 -32 53 -32 56 0 4 -6 12 -12 19 -7 7 -24 28 -38 46 -14 18 -30
38 -35 44 -6 6 -22 27 -35 46 -13 19 -27 37 -30 40 -6 5 -113 142 -148 190
-10 14 -38 59 -62 100 -43 73 -113 173 -163 235 -33 41 -86 119 -126 184 -18
29 -54 80 -81 112 -27 33 -67 89 -89 126 -22 38 -51 80 -65 95 -14 15 -26 31
-26 36 0 4 -8 17 -18 28 -10 10 -24 28 -32 40 -19 27 -189 212 -303 330 -105
108 -233 198 -397 277 -143 69 -190 85 -262 93 -49 6 -65 3 -111 -19 -64 -32
-82 -62 -81 -132 0 -43 6 -60 35 -101 20 -27 55 -64 80 -82 24 -18 58 -44 74
-58 17 -13 35 -24 42 -24 6 0 13 -4 15 -8 4 -12 95 -72 107 -72 6 0 11 -3 11
-7 0 -12 86 -64 153 -94 33 -15 67 -34 77 -42 17 -15 139 -99 255 -178 345
-233 491 -359 689 -592 27 -32 46 -60 43 -63 -5 -5 -78 52 -152 120 -11 10
-60 46 -110 79 -49 33 -99 69 -110 80 -19 18 -186 135 -324 227 -116 77 -245
172 -281 206 -19 18 -49 41 -66 51 -38 22 -157 104 -164 113 -3 3 -21 17 -40
30 -19 13 -37 27 -40 30 -8 8 -63 52 -101 80 -59 43 -159 143 -207 205 -25 33
-72 89 -103 125 -58 67 -123 181 -134 237 -5 25 -1 37 15 53 20 20 29 21 89
15 38 -4 145 -33 256 -70 257 -86 299 -95 473 -97 144 -3 148 -2 202 25 30 16
71 44 92 64 l36 35 18 -28 c9 -16 23 -38 30 -50 6 -11 41 -52 76 -91 34 -38
77 -86 93 -106 34 -41 85 -70 108 -61 21 8 25 36 26 191 0 137 20 243 45 243
7 0 31 -28 53 -62z m-1112 -283 c33 -39 41 -41 79 -21 70 36 186 -44 186 -128
0 -25 3 -27 23 -21 55 18 112 17 137 -3 21 -17 25 -29 27 -84 1 -34 2 -66 2
-70 1 -5 21 -8 46 -8 58 0 102 -19 140 -59 26 -28 30 -40 30 -89 l0 -56 55 -1
c30 -1 64 -7 75 -14 50 -33 232 -304 223 -332 -2 -5 -46 23 -98 62 -52 39
-113 80 -135 91 -70 35 -163 102 -174 126 -6 13 -11 31 -11 41 0 14 -10 20
-42 25 -83 13 -208 99 -208 142 0 8 -3 14 -7 14 -5 1 -33 2 -65 3 -46 2 -63 7
-95 33 -21 17 -39 42 -41 55 -6 49 -10 52 -41 33 -29 -17 -30 -17 -86 17 -58
35 -95 81 -95 117 0 24 -15 37 -25 22 -3 -5 -10 -10 -16 -10 -15 0 -49 63 -49
91 0 25 31 62 60 71 28 9 75 -12 105 -47z m-130 -444 c28 -28 97 -77 245 -175
68 -44 118 -81 233 -169 37 -29 93 -65 124 -82 75 -39 84 -68 51 -163 -57
-165 -5 -446 132 -714 67 -129 66 -134 -13 -104 -34 13 -86 35 -115 50 -28 14
-58 26 -66 26 -26 0 -36 -36 -36 -135 0 -108 -7 -118 -60 -90 -37 19 -60 7
-60 -31 0 -12 -5 -26 -11 -29 -17 -11 -46 23 -86 101 -44 85 -66 99 -99 61
-20 -24 -34 -70 -49 -159 -3 -21 -10 -38 -14 -38 -21 0 -80 107 -86 158 -5 37
-13 57 -28 67 -31 22 -45 2 -58 -76 -20 -128 -70 -252 -116 -289 l-28 -22 -27
33 c-16 18 -28 37 -28 42 0 4 -29 55 -65 111 -36 57 -67 111 -71 119 -7 19
-29 28 -48 21 -7 -3 -25 -26 -39 -53 -33 -61 -144 -166 -200 -191 -53 -24
-173 -50 -228 -50 -38 0 -41 2 -61 47 -11 25 -23 78 -27 117 -7 84 -21 93 -80
51 -21 -14 -54 -30 -72 -35 -132 -33 -139 -27 -139 117 l0 105 -27 -6 c-16 -4
-40 -16 -55 -26 -15 -11 -33 -20 -40 -20 -7 0 -40 23 -73 51 -32 28 -93 74
-135 102 -41 27 -84 58 -95 68 -11 10 -46 31 -77 47 -47 25 -60 28 -74 18 -23
-17 -13 -41 49 -108 58 -64 185 -268 210 -338 9 -25 21 -64 27 -87 10 -40 13
-43 45 -43 29 0 36 -4 41 -26 9 -37 -3 -207 -21 -281 -15 -66 -12 -93 11 -93
20 0 101 39 115 56 35 42 66 -25 90 -194 11 -78 10 -86 -8 -110 -25 -33 -80
-72 -103 -72 -13 0 -20 15 -30 62 -10 52 -19 69 -51 100 -53 51 -90 59 -218
48 -180 -15 -251 -18 -256 -9 -3 4 12 43 34 86 51 100 150 407 158 487 4 49 2
65 -11 78 -23 24 -49 12 -114 -49 -31 -31 -70 -65 -87 -78 -37 -28 -161 -95
-175 -95 -18 0 -11 29 17 73 37 58 158 303 173 350 17 54 18 151 1 171 -23 27
-40 19 -103 -49 -34 -36 -69 -65 -80 -65 -17 0 -18 6 -12 68 3 37 11 83 16
102 16 49 14 278 -2 394 l-14 100 74 68 c41 37 81 68 88 68 8 0 12 -19 12 -61
0 -33 4 -68 10 -78 22 -42 39 -33 173 95 73 70 148 138 167 153 19 14 63 50
98 79 94 79 99 75 83 -63 -8 -73 0 -120 24 -129 8 -3 40 16 72 43 56 46 460
254 606 311 78 31 84 24 63 -79 -27 -138 10 -173 85 -78 74 94 342 315 428
354 46 20 83 15 116 -16z m5129 -969 c8 -13 96 -749 96 -802 l0 -30 -238 0
c-256 0 -433 -16 -566 -50 -86 -22 -169 -64 -163 -83 11 -34 150 -99 356 -167
228 -76 416 -169 506 -251 119 -110 165 -219 165 -393 -1 -181 -38 -295 -150
-461 -132 -195 -412 -383 -765 -513 -262 -96 -674 -197 -905 -222 -47 -5 -146
-16 -220 -24 -204 -23 -531 -39 -542 -28 -6 6 -21 122 -34 259 -13 136 -33
334 -43 438 -11 105 -16 194 -11 198 4 5 80 3 169 -4 95 -7 259 -9 403 -6 219
4 253 7 339 30 155 41 196 71 148 109 -20 16 -223 118 -234 118 -9 0 -288 121
-345 150 -214 108 -346 221 -408 350 -34 69 -37 83 -40 181 -5 127 7 193 53
288 92 191 286 372 567 528 61 34 148 76 192 93 45 17 90 35 101 40 168 70
387 124 725 179 221 36 473 62 720 74 30 2 69 4 87 5 17 1 34 -2 37 -6z
m-6609 -1352 c9 -15 96 -770 93 -803 l-3 -29 -215 2 c-359 1 -626 -38 -718
-107 -32 -24 -33 -26 -16 -45 28 -30 144 -81 324 -143 91 -31 234 -90 317
-130 133 -65 162 -84 222 -142 120 -119 156 -217 149 -410 -4 -106 -9 -142
-32 -208 -83 -242 -296 -462 -589 -607 -332 -165 -713 -278 -1157 -342 -307
-45 -791 -79 -804 -57 -7 10 -24 173 -69 655 -19 196 -21 239 -10 243 8 3 78
1 156 -6 341 -26 509 -23 721 14 92 16 208 68 200 90 -12 30 -103 77 -394 200
-374 159 -535 274 -618 445 l-37 75 1 135 c0 116 4 143 24 194 85 219 267 403
568 578 143 82 338 162 547 221 311 89 790 159 1240 180 33 2 68 4 77 5 9 1
20 -3 23 -8z m260 -229 c8 -14 -13 -24 -33 -16 -14 5 -14 7 -2 15 19 12 27 12
35 1z m4134 -156 c57 -34 74 -56 52 -70 -6 -3 -30 -31 -54 -63 -24 -31 -60
-79 -81 -107 -47 -62 -61 -70 -92 -56 -22 10 -24 16 -24 89 0 68 3 84 25 113
13 19 39 55 57 81 18 26 38 48 45 48 7 0 39 -16 72 -35z m221 -125 c46 -23
223 -98 293 -124 26 -10 47 -21 47 -26 0 -15 -226 -32 -386 -28 l-162 3 72 97
c39 54 77 97 84 98 7 0 31 -9 52 -20z m-4443 -428 c6 -4 39 -43 73 -87 l62
-80 -6 -59 c-3 -32 -6 -83 -6 -112 0 -37 -4 -54 -13 -54 -7 0 -37 33 -66 73
-79 105 -100 132 -163 215 -32 42 -58 81 -58 88 0 7 10 15 23 17 38 7 141 7
154 -1z m-186 -198 c74 -97 147 -195 163 -218 17 -22 49 -65 73 -94 44 -55 54
-82 30 -82 -17 0 -46 32 -89 100 -46 72 -90 116 -169 172 -114 80 -192 118
-391 191 -31 11 -54 25 -52 31 4 11 120 48 204 65 97 19 85 28 231 -165z
m3179 -989 c0 -8 -26 -49 -57 -91 -32 -41 -89 -117 -128 -169 -38 -51 -124
-164 -190 -250 -66 -87 -142 -188 -170 -225 -27 -37 -84 -112 -126 -166 -167
-220 -326 -429 -354 -469 -57 -80 -107 -136 -120 -133 -11 3 -92 105 -220 278
-27 37 -98 130 -156 206 -58 77 -168 223 -245 325 -77 103 -157 207 -178 232
-21 26 -36 52 -34 59 4 12 94 37 140 38 28 0 43 -16 148 -160 56 -76 188 -252
219 -290 15 -19 92 -120 171 -225 78 -104 148 -191 155 -193 12 -3 69 60 115
128 13 19 48 65 78 102 29 37 75 96 100 132 26 36 108 145 182 242 74 97 151
199 170 225 65 89 238 314 267 347 24 28 40 35 118 51 114 24 115 24 115 6z"/>
<path d="M4881 8721 c-29 -55 -28 -116 2 -135 86 -56 180 10 162 115 -8 49
-27 50 -55 3 -24 -42 -37 -36 -42 16 -2 27 -8 36 -25 38 -17 3 -27 -6 -42 -37z"/>
<path d="M5878 8064 c-3 -3 -4 -41 -1 -85 l6 -79 -32 11 c-63 22 -79 -9 -33
-63 15 -18 35 -44 45 -58 9 -14 35 -52 58 -85 141 -202 236 -351 261 -412 10
-24 28 -60 41 -80 61 -97 127 -215 127 -227 0 -8 10 -34 21 -58 28 -55 34 -70
59 -143 32 -92 41 -105 66 -105 53 0 40 139 -26 295 -39 92 -81 199 -94 241
-15 45 -229 481 -284 577 -47 81 -145 233 -165 255 -20 22 -38 28 -49 16z"/>
<path d="M1450 6975 c0 -8 26 -48 58 -89 31 -40 94 -122 139 -182 45 -60 103
-136 128 -169 25 -33 69 -92 98 -132 28 -40 57 -71 62 -69 6 1 15 29 21 62 17
95 122 445 154 517 38 83 63 77 -320 77 -297 0 -340 -2 -340 -15z"/>
<path d="M5459 6969 c-13 -25 -5 -130 17 -224 51 -222 188 -494 330 -660 47
-55 93 -111 102 -123 11 -18 22 -23 41 -19 121 21 588 120 594 126 6 6 -42 77
-135 195 -13 16 -32 44 -43 62 -11 17 -49 58 -84 90 -35 33 -87 81 -115 107
-28 27 -69 62 -91 77 -22 16 -58 47 -79 69 -22 23 -43 41 -47 41 -4 0 -29 18
-55 41 -46 40 -138 107 -267 197 -51 35 -70 42 -109 42 -38 0 -50 -4 -59 -21z"/>
<path d="M2455 6704 c-9 -10 -35 -42 -57 -73 -23 -31 -60 -77 -84 -102 -23
-26 -53 -68 -67 -95 -25 -49 -124 -177 -155 -202 -10 -7 -28 -10 -44 -6 -16 3
-28 2 -28 -2 0 -11 72 -114 145 -206 33 -42 85 -111 115 -152 30 -41 60 -75
66 -76 5 0 20 19 32 43 12 23 42 71 67 106 52 75 57 101 19 101 -16 0 -39 13
-60 34 -28 28 -34 41 -34 78 1 51 22 154 38 185 7 12 25 77 41 145 47 203 49
265 6 222z"/>
<path d="M2668 5645 c-9 -10 -112 -45 -129 -45 -41 0 -37 -25 13 -92 28 -38
56 -68 63 -68 16 0 95 163 95 196 0 13 -31 20 -42 9z"/>
<path d="M5428 5234 c-92 -119 -151 -191 -191 -229 -64 -60 -68 -61 343 24
206 42 200 39 200 106 0 57 -14 71 -40 40 -16 -19 -73 -19 -111 0 -16 9 -54
38 -85 65 -30 28 -58 50 -64 50 -5 0 -28 -25 -52 -56z"/>
<path d="M2950 1165 l0 -55 -190 0 -190 0 0 -185 0 -185 30 0 30 0 0 155 0
155 190 0 190 0 0 85 0 85 -30 0 c-30 0 -30 -1 -30 -55z"/>
<path d="M5270 1165 l0 -55 -115 0 -115 0 0 -520 0 -520 -70 0 -70 0 0 -30 0
-30 100 0 100 0 0 520 0 520 115 0 115 0 0 85 0 85 -30 0 c-30 0 -30 -1 -30
-55z"/>
<path d="M6570 1215 c0 -3 63 -250 139 -548 77 -298 143 -554 147 -569 l6 -28
-76 0 c-79 0 -85 -4 -70 -44 5 -13 24 -16 105 -16 73 0 99 3 99 13 -1 6 -70
278 -153 602 -141 545 -155 590 -175 593 -12 2 -22 1 -22 -3z"/>
<path d="M7170 730 l0 -490 30 0 30 0 0 490 0 490 -30 0 -30 0 0 -490z"/>
<path d="M7860 730 l0 -490 30 0 30 0 0 490 0 490 -30 0 -30 0 0 -490z"/>
<path d="M3703 1125 c22 -49 22 -57 22 -455 0 -404 0 -405 -23 -452 -53 -107
-147 -153 -312 -153 -93 0 -112 3 -165 27 l-60 28 43 -40 c63 -57 125 -75 253
-75 102 0 110 2 175 35 80 41 125 98 143 180 7 31 11 187 11 402 0 404 -5 438
-71 511 l-39 42 23 -50z"/>
<path d="M4490 1169 c0 -4 9 -26 20 -50 18 -41 20 -67 20 -440 0 -430 -1 -443
-56 -514 -42 -55 -136 -96 -236 -102 -88 -6 -190 13 -236 43 -22 14 -22 14
-11 -4 17 -27 85 -70 134 -84 64 -20 221 -16 284 6 63 22 124 73 154 130 21
40 22 52 25 445 3 450 2 464 -63 537 -19 22 -34 36 -35 33z"/>
<path d="M5986 1135 c14 -31 18 -69 18 -165 1 -119 0 -127 -27 -172 -22 -38
-39 -53 -86 -75 l-58 -27 51 -18 c69 -23 70 -23 115 18 54 48 66 88 66 219 0
126 -16 184 -66 231 l-30 29 17 -40z"/>
<path d="M3314 1092 c-54 -34 -55 -46 -52 -434 l3 -356 24 -26 c14 -14 27 -26
30 -26 3 0 6 166 6 370 l0 370 28 27 c25 25 34 28 97 28 39 0 70 3 70 6 0 3
-11 16 -25 29 -36 34 -136 40 -181 12z"/>
<path d="M4134 1100 c-12 -4 -31 -21 -43 -36 -21 -26 -21 -34 -21 -386 0 -375
3 -406 45 -421 13 -6 15 34 15 354 0 395 1 405 59 429 16 6 54 10 84 8 50 -3
54 -1 46 14 -22 41 -126 62 -185 38z"/>
<path d="M4680 1080 l0 -30 85 0 85 0 0 30 0 30 -85 0 -85 0 0 -30z"/>
<path d="M5590 945 l0 -165 30 0 30 0 0 135 0 135 80 0 c67 0 78 2 73 15 -11
29 -59 45 -138 45 l-75 0 0 -165z"/>
<path d="M6470 938 c0 -7 -82 -397 -95 -455 -5 -21 -2 -23 29 -23 41 0 37 -10
81 203 24 116 26 134 15 191 -10 53 -29 107 -30 84z"/>
<path d="M2900 635 l0 -55 -165 0 -165 0 0 -255 0 -255 -70 0 -70 0 0 -30 0
-30 100 0 100 0 0 255 0 255 165 0 165 0 0 85 0 85 -30 0 c-30 0 -30 -1 -30
-55z"/>
<path d="M5590 425 l0 -185 30 0 30 0 0 155 0 155 88 0 87 1 -33 29 c-30 28
-37 30 -117 30 l-85 0 0 -185z"/>
<path d="M6006 564 c13 -30 15 -68 12 -190 -3 -151 -3 -153 -33 -196 -21 -30
-48 -52 -90 -73 -59 -30 -62 -30 -252 -34 l-193 -3 0 -29 0 -29 193 0 c282 0
358 25 411 131 24 50 26 61 26 199 0 133 -2 151 -23 190 -12 24 -33 50 -45 58
l-22 14 16 -38z"/>
<path d="M6337 293 c-3 -5 -15 -56 -27 -115 l-22 -107 -66 -3 c-62 -3 -66 -4
-73 -31 l-7 -27 102 0 103 0 23 115 24 115 119 0 c105 0 118 2 113 16 -3 9 -6
22 -6 30 0 11 -26 14 -139 14 -77 0 -142 -3 -144 -7z"/>
<path d="M7537 183 c-4 -3 -7 -30 -7 -60 l0 -53 -251 0 -250 0 3 -28 3 -27
278 -3 277 -2 0 90 c0 88 -1 90 -23 90 -13 0 -27 -3 -30 -7z"/>
<path d="M8227 183 c-4 -3 -7 -30 -7 -60 l0 -53 -250 0 -250 0 0 -30 0 -30
280 0 280 0 0 90 c0 88 -1 90 -23 90 -13 0 -27 -3 -30 -7z"/>
</g>
</svg>
